<svg xmlns="http://www.w3.org/2000/svg" width="50" height="50" viewBox="0 0 50 50">
  <g id="instagram" transform="translate(-233 -1054)">
    <circle id="Elipse_4" data-name="Elipse 4" cx="25" cy="25" r="25" transform="translate(233 1054)" fill="#fff"/>
    <path id="af2da8f3726c5aa836b9ea2eeab70e0c" d="M21.942,6.5h0a1.56,1.56,0,1,0,1.56,1.56A1.56,1.56,0,0,0,21.942,6.5Zm5.98,3.146a9.867,9.867,0,0,0-.6-3.159,6.422,6.422,0,0,0-1.508-2.3,6.11,6.11,0,0,0-2.3-1.5,9.49,9.49,0,0,0-3.159-.611C18.978,2,18.536,2,15,2s-3.978,0-5.356.078a9.49,9.49,0,0,0-3.159.611,6.214,6.214,0,0,0-2.3,1.495,6.11,6.11,0,0,0-1.5,2.3,9.49,9.49,0,0,0-.611,3.159C2,11.022,2,11.464,2,15s0,3.978.078,5.356a9.49,9.49,0,0,0,.611,3.159,6.11,6.11,0,0,0,1.5,2.3,6.214,6.214,0,0,0,2.3,1.5,9.49,9.49,0,0,0,3.159.611C11.022,28,11.464,28,15,28s3.978,0,5.356-.078a9.49,9.49,0,0,0,3.159-.611,6.11,6.11,0,0,0,2.3-1.5,6.3,6.3,0,0,0,1.508-2.3,9.867,9.867,0,0,0,.6-3.159c0-1.378.078-1.82.078-5.356S28,11.022,27.922,9.644ZM25.582,20.2a7.293,7.293,0,0,1-.442,2.418,3.978,3.978,0,0,1-.975,1.5,4.147,4.147,0,0,1-1.5.975,7.293,7.293,0,0,1-2.418.442c-1.3.065-1.781.078-5.2.078s-3.9,0-5.2-.078a7.449,7.449,0,0,1-2.522-.39,4.251,4.251,0,0,1-1.43-.975,3.9,3.9,0,0,1-.962-1.5,7.2,7.2,0,0,1-.52-2.47c0-1.3-.078-1.781-.078-5.2s0-3.9.078-5.2a7.2,7.2,0,0,1,.455-2.47A3.9,3.9,0,0,1,5.9,5.9,4.082,4.082,0,0,1,7.33,4.86,7.449,7.449,0,0,1,9.8,4.418c1.3,0,1.781-.078,5.2-.078s3.9,0,5.2.078a7.293,7.293,0,0,1,2.418.442A3.978,3.978,0,0,1,24.165,5.9a3.978,3.978,0,0,1,.975,1.43,7.293,7.293,0,0,1,.442,2.47c.065,1.3.078,1.781.078,5.2S25.647,18.9,25.582,20.2ZM15,8.331a6.656,6.656,0,1,0,4.728,1.945A6.669,6.669,0,0,0,15,8.331Zm0,11A4.329,4.329,0,1,1,19.329,15,4.329,4.329,0,0,1,15,19.329Z" transform="translate(243 1064)" fill="#c6a261"/>
  </g>
</svg>
