<svg xmlns="http://www.w3.org/2000/svg" xmlns:xlink="http://www.w3.org/1999/xlink" width="104.827" height="65.328" viewBox="0 0 104.827 65.328">
  <defs>
    <clipPath id="clip-path">
      <rect id="Retângulo_3" data-name="Retângulo 3" width="104.827" height="65.328" fill="none"/>
    </clipPath>
  </defs>
  <g id="logo" transform="translate(0)">
    <g id="Grupo_7" data-name="Grupo 7" transform="translate(0 0)">
      <g id="Grupo_1" data-name="Grupo 1" transform="translate(0 0)" clip-path="url(#clip-path)">
        <path id="Caminho_1" data-name="Caminho 1" d="M79.916,45.138s6.235,6.351,17.331-7.576c0,0-10.923,18.585-17.331,7.576" transform="translate(-37.205 -17.487)" fill="#c6a261"/>
        <path id="Caminho_2" data-name="Caminho 2" d="M90.216,58.413s3.182,1.2,9.59-6.193c0,0-4.171,10.192-9.59,6.193" transform="translate(-42.001 -24.311)" fill="#c6a261"/>
        <path id="Caminho_3" data-name="Caminho 3" d="M96.925,6.028C94.28,2.141,90.723,0,86.91,0S79.542,2.141,76.9,6.028a25.157,25.157,0,0,0-3.974,14.046q0,.65.029,1.294l2.178,1.52a27.3,27.3,0,0,1-.145-2.815A23.086,23.086,0,0,1,78.6,7.188c2.249-3.306,5.2-5.127,8.309-5.127s6.061,1.821,8.31,5.127a23.086,23.086,0,0,1,3.617,12.887A23.083,23.083,0,0,1,95.22,32.96c-2.249,3.306-5.2,5.127-8.31,5.127a9.21,9.21,0,0,1-6.45-2.884.23.23,0,0,0-.328,0l-1.1,1.165a.229.229,0,0,0,0,.321,11.208,11.208,0,0,0,7.877,3.456c3.813,0,7.369-2.141,10.014-6.029A25.155,25.155,0,0,0,100.9,20.074,25.157,25.157,0,0,0,96.925,6.028" transform="translate(-33.95 0)" fill="#132049"/>
        <path id="Caminho_4" data-name="Caminho 4" d="M71.024,27.439s7.117,5.548,13.353,1.355C91.192,24.211,98.31,14.6,98.31,14.6S91.649,26.26,85.473,30.557c-5.655,3.935-10.966,2.3-14.449-3.118" transform="translate(-33.066 -6.798)" fill="#c6a261"/>
        <path id="Caminho_5" data-name="Caminho 5" d="M9.243,85.667c0,.036-.017.054-.049.054H8.964q-.785.168-1.156,1.4-.1.324-.2.626l-2.43,7.144q-.055.168-.136.2a.594.594,0,0,1-.223.034H4.525a.184.184,0,0,1-.191-.148l-3.259-8.6A1.112,1.112,0,0,0,.1,85.728a.509.509,0,0,0-.071-.006C.009,85.721,0,85.7,0,85.667v-.161c0-.036.016-.054.049-.054H3.7c.033,0,.05.018.05.054v.161c0,.036-.017.054-.05.054H3.6c-.1.018-.223.036-.359.054q-.791.107-.792.687a1.02,1.02,0,0,0,.087.39L4.884,93.06c.041.09.084.088.13-.006l2.152-6.343a1.052,1.052,0,0,0,.043-.32.554.554,0,0,0-.142-.356.513.513,0,0,0-.288-.2L6.55,85.8c-.056-.009-.139-.024-.25-.043a1.571,1.571,0,0,0-.223-.03.049.049,0,0,1-.056-.054v-.161c0-.036.017-.054.05-.054H9.194c.033,0,.049.018.049.054Z" transform="translate(0 -39.783)" fill="#132049"/>
        <path id="Caminho_6" data-name="Caminho 6" d="M19.64,88.835q0-.713-.752-.713c-.08,0-.12-.016-.12-.048v-.142c0-.032.014-.048.044-.048h2.733c.029,0,.043.015.043.048v.142c0,.032-.08.048-.24.048a.68.68,0,0,0-.441.166.873.873,0,0,0-.2.684V95.31q0,.713.758.712c.076,0,.114.016.114.048v.143c0,.032-.014.048-.044.048H18.8c-.029,0-.043-.015-.043-.048V96.07c0-.032.08-.048.24-.048a.677.677,0,0,0,.441-.166.871.871,0,0,0,.2-.683Z" transform="translate(-8.732 -40.915)" fill="#132049"/>
        <path id="Caminho_7" data-name="Caminho 7" d="M42.049,88.835q0-.713-.752-.713c-.08,0-.12-.016-.12-.048v-.142c0-.032.014-.048.044-.048h2.733c.029,0,.043.015.043.048v.142c0,.032-.08.048-.24.048a.68.68,0,0,0-.441.166.873.873,0,0,0-.2.684V95.31q0,.713.758.712c.076,0,.114.016.114.048v.143c0,.032-.014.048-.044.048H41.209c-.029,0-.043-.015-.043-.048V96.07c0-.032.08-.048.24-.048a.677.677,0,0,0,.441-.166.871.871,0,0,0,.2-.683Z" transform="translate(-19.165 -40.915)" fill="#132049"/>
        <path id="Caminho_8" data-name="Caminho 8" d="M50.367,96.208c-.029,0-.044-.04-.044-.119v-.071c0-.032.015-.048.044-.048a.69.69,0,0,0,.1-.012l.148-.024c.051-.007.1-.017.142-.027l.092-.02a.652.652,0,0,0,.556-.689V88.925a.765.765,0,0,0-.376-.725.935.935,0,0,0-.48-.13h-.207c-.029,0-.043-.016-.043-.048V87.88c0-.032.021-.048.065-.048l2.994-.089h.551a2.423,2.423,0,0,1,2.269,2.469,1.839,1.839,0,0,1-.774,1.577,3.626,3.626,0,0,1-.518.309l1.653,2.941A2.416,2.416,0,0,0,57.7,96.125a.078.078,0,0,1,.06.083c0,.1-.06.148-.18.148a2.28,2.28,0,0,1-1.953-1.015q-.158-.225-.316-.505L53.9,92.424l-1.3-.065h-.044a.073.073,0,0,0-.082.083V95.18a.641.641,0,0,0,.169.487,1.076,1.076,0,0,0,.584.22c.073.012.161.028.267.05a1.281,1.281,0,0,0,.215.033c.038,0,.057.016.057.048v.143c0,.032-.014.048-.044.048Zm2.547-8.153-.139.006-.188.006c-.076,0-.115.035-.115.1v3.6l.011.179c.011.083.045.127.1.13l.556.036q1.532,0,1.849-1.188a3.218,3.218,0,0,0,.1-.856,2.006,2.006,0,0,0-.537-1.479,1.853,1.853,0,0,0-1.372-.541c-.051,0-.1,0-.142,0l-.131.006" transform="translate(-23.418 -40.849)" fill="#132049"/>
        <path id="Caminho_9" data-name="Caminho 9" d="M67.757,96.213c0,.032-.014.048-.043.048H64.927c-.029,0-.044-.015-.044-.048V96.07c0-.032.024-.048.071-.048a1.074,1.074,0,0,0,1.009-.867l2.225-7.015a.071.071,0,0,0,.006-.03l-.06-.2c0-.02.007-.029.022-.029h1.091l.03.012a.051.051,0,0,1,.03.036l2.307,7.051a2.954,2.954,0,0,1,.123.291,1.549,1.549,0,0,0,.106.238.855.855,0,0,0,.431.374.975.975,0,0,0,.458.136c.029,0,.044.018.044.054v.136c0,.032-.014.048-.044.048H69.394c-.029,0-.044-.015-.044-.048V96.07q0-.047.2-.059c.134-.008.245-.016.332-.024q.758-.089.758-.558a.374.374,0,0,0-.011-.083l-.824-2.53c0-.008-.011-.026-.021-.053q-.066-.2-.229-.2H67.621a.285.285,0,0,0-.257.2.29.29,0,0,0-.016.048l-.818,2.608v.053a.362.362,0,0,0,.147.279,1.345,1.345,0,0,0,.895.279h.142c.029,0,.043.016.043.048ZM69.372,91.9c.065,0,.1-.029.1-.089a.318.318,0,0,0-.022-.107l-.813-2.435q-.055-.16-.082-.16c-.018,0-.047.056-.087.166L67.7,91.7a.371.371,0,0,0-.022.128c0,.046.027.068.082.068Z" transform="translate(-30.207 -40.915)" fill="#132049"/>
        <path id="Caminho_10" data-name="Caminho 10" d="M115.249,96.208c-.029,0-.044-.04-.044-.119v-.071c0-.032.014-.048.044-.048a.69.69,0,0,0,.1-.012l.148-.024c.051-.007.1-.017.142-.027l.093-.02a.652.652,0,0,0,.556-.689V88.925a.764.764,0,0,0-.377-.725.935.935,0,0,0-.48-.13h-.207c-.028,0-.043-.016-.043-.048V87.88c0-.032.021-.048.065-.048l3-.089h.55a2.423,2.423,0,0,1,2.269,2.469,1.839,1.839,0,0,1-.775,1.577,3.6,3.6,0,0,1-.518.309l1.653,2.941a2.42,2.42,0,0,0,1.156,1.087.078.078,0,0,1,.06.083c0,.1-.06.148-.179.148a2.28,2.28,0,0,1-1.953-1.015c-.105-.15-.212-.319-.317-.505l-1.412-2.411-1.3-.065h-.044a.073.073,0,0,0-.082.083V95.18a.642.642,0,0,0,.17.487,1.071,1.071,0,0,0,.583.22c.073.012.161.028.267.05a1.288,1.288,0,0,0,.215.033c.038,0,.057.016.057.048v.143c0,.032-.014.048-.044.048Zm2.548-8.153-.139.006-.189.006c-.076,0-.115.035-.115.1v3.6l.011.179c.011.083.046.127.1.13l.556.036q1.532,0,1.849-1.188a3.2,3.2,0,0,0,.1-.856,2.006,2.006,0,0,0-.537-1.479,1.852,1.852,0,0,0-1.372-.541c-.051,0-.1,0-.142,0l-.13.006" transform="translate(-53.625 -40.849)" fill="#132049"/>
        <path id="Caminho_11" data-name="Caminho 11" d="M130.747,96.208c-.029,0-.044-.04-.044-.119v-.071c0-.032.014-.048.044-.048a.69.69,0,0,0,.1-.012l.147-.024c.051-.007.1-.017.142-.027l.092-.02a.652.652,0,0,0,.556-.689V88.925a.765.765,0,0,0-.376-.725.935.935,0,0,0-.48-.13h-.207c-.029,0-.043-.016-.043-.048V87.88c0-.032.021-.048.065-.048l2.995-.089h.551a2.423,2.423,0,0,1,2.269,2.469,1.839,1.839,0,0,1-.774,1.577,3.626,3.626,0,0,1-.518.309l1.653,2.941a2.416,2.416,0,0,0,1.156,1.087.078.078,0,0,1,.06.083c0,.1-.06.148-.18.148a2.28,2.28,0,0,1-1.953-1.015q-.158-.225-.316-.505l-1.413-2.411-1.3-.065h-.044a.073.073,0,0,0-.082.083V95.18a.641.641,0,0,0,.169.487,1.074,1.074,0,0,0,.584.22c.073.012.161.028.267.05a1.281,1.281,0,0,0,.215.033c.038,0,.057.016.057.048v.143c0,.032-.014.048-.044.048Zm2.547-8.153-.139.006-.188.006c-.076,0-.115.035-.115.1v3.6l.011.179c.011.083.045.127.1.13l.556.036q1.532,0,1.849-1.188a3.219,3.219,0,0,0,.1-.856,2.006,2.006,0,0,0-.537-1.479,1.853,1.853,0,0,0-1.372-.541c-.051,0-.1,0-.142,0l-.131.006" transform="translate(-60.84 -40.849)" fill="#132049"/>
        <path id="Caminho_12" data-name="Caminho 12" d="M158.7,88.835q0-.713-.753-.713c-.08,0-.12-.016-.12-.048v-.142c0-.032.015-.048.044-.048h2.733c.029,0,.043.015.043.048v.142c0,.032-.08.048-.24.048a.68.68,0,0,0-.441.166.875.875,0,0,0-.2.684V95.31q0,.713.759.712c.076,0,.114.016.114.048v.143c0,.032-.014.048-.044.048h-2.733c-.029,0-.043-.015-.043-.048V96.07c0-.032.08-.048.24-.048a.677.677,0,0,0,.441-.166.871.871,0,0,0,.2-.683Z" transform="translate(-73.474 -40.915)" fill="#132049"/>
        <path id="Caminho_13" data-name="Caminho 13" d="M167.491,95.905c-.029,0-.044-.04-.044-.119v-.071c0-.032.014-.048.044-.048a.69.69,0,0,0,.1-.012l.148-.024c.051-.007.1-.017.142-.027l.092-.02a.652.652,0,0,0,.556-.689V88.622a.765.765,0,0,0-.376-.725.935.935,0,0,0-.48-.13h-.207c-.029,0-.043-.016-.043-.048v-.143c0-.032.021-.048.065-.048l2.994-.089h.551a2.423,2.423,0,0,1,2.269,2.469,1.839,1.839,0,0,1-.774,1.577,3.629,3.629,0,0,1-.518.309l1.653,2.941a2.416,2.416,0,0,0,1.156,1.087.078.078,0,0,1,.06.083q0,.148-.18.148a2.28,2.28,0,0,1-1.953-1.015q-.158-.225-.316-.505l-1.413-2.411-1.3-.065h-.044a.073.073,0,0,0-.082.083v2.738a.641.641,0,0,0,.169.487,1.074,1.074,0,0,0,.584.22c.073.012.161.028.267.05a1.281,1.281,0,0,0,.215.033c.038,0,.057.016.057.048v.143c0,.032-.014.048-.044.048Zm2.547-8.153-.139.006-.188.006c-.076,0-.115.035-.115.1v3.6l.011.178c.011.083.045.127.1.13l.556.036q1.532,0,1.849-1.188a3.219,3.219,0,0,0,.1-.856,2.006,2.006,0,0,0-.537-1.479,1.853,1.853,0,0,0-1.372-.541c-.051,0-.1,0-.142,0l-.131.006" transform="translate(-77.946 -40.708)" fill="#132049"/>
        <path id="Caminho_14" data-name="Caminho 14" d="M184.25,96.213c0,.032-.014.048-.043.048H181.42c-.029,0-.044-.015-.044-.048V96.07c0-.032.024-.048.071-.048a1.074,1.074,0,0,0,1.009-.867l2.225-7.015a.081.081,0,0,0,.005-.03l-.06-.2c0-.02.007-.029.021-.029h1.091l.03.012a.053.053,0,0,1,.03.036l2.307,7.051a2.949,2.949,0,0,1,.123.291,1.549,1.549,0,0,0,.106.238.855.855,0,0,0,.431.374.976.976,0,0,0,.459.136c.029,0,.043.018.043.054v.136c0,.032-.014.048-.043.048h-3.338c-.029,0-.044-.015-.044-.048V96.07q0-.047.2-.059c.135-.008.245-.016.332-.024q.758-.089.758-.558a.376.376,0,0,0-.011-.083l-.824-2.53c0-.008-.011-.026-.021-.053q-.066-.2-.229-.2h-1.936a.284.284,0,0,0-.256.2.265.265,0,0,0-.017.048l-.818,2.608v.053a.361.361,0,0,0,.147.279,1.343,1.343,0,0,0,.894.279h.142c.029,0,.043.016.043.048Zm1.615-4.312c.065,0,.1-.029.1-.089a.317.317,0,0,0-.022-.107l-.813-2.435q-.054-.16-.082-.16c-.018,0-.047.056-.087.166L184.2,91.7a.37.37,0,0,0-.022.128c0,.046.027.068.082.068Z" transform="translate(-84.441 -40.915)" fill="#132049"/>
        <path id="Caminho_15" data-name="Caminho 15" d="M95.007,85.829a.327.327,0,0,0-.111-.037H89.8c-.033,0-.05.018-.05.054v.161c0,.036.017.054.05.054h.025a1.155,1.155,0,0,1,.488.114.644.644,0,0,1,.426.626v7.272a.8.8,0,0,1-.17.515,1.136,1.136,0,0,1-.393.32.869.869,0,0,1-.328.108c-.07,0-.105.018-.105.054v.161c0,.036.017.054.05.054h3.376c.033,0,.05-.018.05-.054V95.07c0-.036-.044-.054-.133-.054a2.358,2.358,0,0,1-.637-.219.716.716,0,0,1-.5-.677V90.66q0-.182.148-.182h1.7a.819.819,0,0,1,.494.128,1,1,0,0,1,.322.855c0,.036.016.054.049.054h.149c.033,0,.049-.018.049-.054v-2.5c0-.036-.016-.054-.049-.054h-.149c-.033,0-.049.018-.049.054q0,.882-.828.882H92.1c-.1,0-.148-.052-.148-.155V86.566c0-.089.041-.135.123-.135h1.607a3.084,3.084,0,0,1,.315.014.872.872,0,0,1,.575.33,1.345,1.345,0,0,1,.219.555,2.508,2.508,0,0,0,.084.367h.074a.111.111,0,0,0,.077-.02c.014-.013.021-.047.021-.1v-1.63c0-.063-.012-.1-.037-.118" transform="translate(-41.782 -39.941)" fill="#132049"/>
        <path id="Caminho_16" data-name="Caminho 16" d="M107.129,94.1q-.148,0-.164.166a2.17,2.17,0,0,1-.273.885.964.964,0,0,1-.873.541h-1.4a1.435,1.435,0,0,1-.229-.018q-.377-.059-.376-.5V92.281q0-.059.055-.059h1.45a1.062,1.062,0,0,1,.278.035q.47.137.469,1.016c0,.032.014.048.044.048h.131c.029,0,.043-.016.043-.048V90.73c0-.032-.014-.048-.043-.048h-.131c-.029,0-.044.016-.044.048q0,.927-.731.927h-1.467q-.055,0-.055-.059V88.527c0-.052.024-.077.071-.077h1.854a.648.648,0,0,1,.48.315,1.823,1.823,0,0,1,.188.624,2.03,2.03,0,0,0,.084.433.138.138,0,0,0,.12.053q.082,0,.082-.059l-.1-1.723a.266.266,0,0,0-.055-.169.213.213,0,0,0-.142-.038h-4.766c-.029,0-.044.016-.044.048v.143c0,.032.014.048.044.048h.114q.185.03.366.071a.728.728,0,0,1,.638.749V95.2a.657.657,0,0,1-.447.713,1.579,1.579,0,0,1-.437.063c-.1,0-.193,0-.288.01v.273h5.355c.029,0,.055-.028.076-.083l.18-2c0-.051-.022-.077-.065-.077" transform="translate(-47.293 -40.915)" fill="#132049"/>
        <path id="Caminho_17" data-name="Caminho 17" d="M150.941,94.1q-.148,0-.164.166a2.17,2.17,0,0,1-.273.885.964.964,0,0,1-.873.541h-1.4a1.435,1.435,0,0,1-.229-.018q-.377-.059-.376-.5V92.281q0-.059.055-.059h1.45a1.062,1.062,0,0,1,.278.035q.47.137.469,1.016c0,.032.014.048.044.048h.131c.029,0,.043-.016.043-.048V90.73c0-.032-.014-.048-.043-.048h-.131c-.029,0-.044.016-.044.048q0,.927-.731.927h-1.467q-.055,0-.055-.059V88.527c0-.052.024-.077.071-.077h1.854a.648.648,0,0,1,.48.315,1.823,1.823,0,0,1,.188.624,2.029,2.029,0,0,0,.084.433.138.138,0,0,0,.12.053q.082,0,.082-.059l-.1-1.723a.266.266,0,0,0-.055-.169.213.213,0,0,0-.142-.038H145.45c-.029,0-.044.016-.044.048v.143c0,.032.014.048.044.048h.114q.185.03.366.071a.728.728,0,0,1,.638.749V95.2a.657.657,0,0,1-.447.713,1.579,1.579,0,0,1-.437.063c-.1,0-.193,0-.288.01v.273h5.355c.029,0,.055-.028.076-.083l.18-2c0-.051-.022-.077-.065-.077" transform="translate(-67.69 -40.915)" fill="#132049"/>
        <path id="Caminho_18" data-name="Caminho 18" d="M33.818,94.1q-.148,0-.164.166a2.169,2.169,0,0,1-.273.885.964.964,0,0,1-.873.541h-1.4a1.435,1.435,0,0,1-.229-.018q-.377-.059-.376-.5V92.281q0-.059.055-.059h1.45a1.062,1.062,0,0,1,.278.035q.47.137.469,1.016c0,.032.014.048.044.048h.131c.029,0,.043-.016.043-.048V90.73c0-.032-.014-.048-.043-.048H32.8c-.029,0-.044.016-.044.048q0,.927-.731.927H30.563q-.055,0-.055-.059V88.527c0-.052.024-.077.071-.077h1.854a.648.648,0,0,1,.48.315,1.823,1.823,0,0,1,.188.624,2.03,2.03,0,0,0,.084.433.138.138,0,0,0,.12.053q.082,0,.082-.059l-.1-1.723a.266.266,0,0,0-.055-.169.213.213,0,0,0-.142-.038H28.327c-.029,0-.044.016-.044.048v.143c0,.032.014.048.044.048h.114q.185.03.366.071a.728.728,0,0,1,.638.749V95.2a.657.657,0,0,1-.447.713,1.579,1.579,0,0,1-.437.063c-.1,0-.193,0-.288.01v.273h5.355c.029,0,.055-.028.076-.083l.18-2c0-.051-.022-.077-.065-.077" transform="translate(-13.163 -40.915)" fill="#132049"/>
        <path id="Caminho_19" data-name="Caminho 19" d="M20.7,116.09a2.149,2.149,0,0,1,.174-.862,2.214,2.214,0,0,1,.475-.7,2.251,2.251,0,0,1,.7-.474,2.221,2.221,0,0,1,1.722,0,2.219,2.219,0,0,1,1.177,1.177,2.223,2.223,0,0,1,0,1.723,2.219,2.219,0,0,1-1.177,1.177,2.221,2.221,0,0,1-1.722,0,2.251,2.251,0,0,1-.7-.474,2.214,2.214,0,0,1-.475-.7,2.149,2.149,0,0,1-.174-.862m.377,0a1.774,1.774,0,0,0,.066.487,1.9,1.9,0,0,0,.186.439,1.759,1.759,0,0,0,.286.371,1.9,1.9,0,0,0,.371.287,1.766,1.766,0,0,0,.438.185,1.854,1.854,0,0,0,.975,0,1.794,1.794,0,0,0,.439-.185,1.835,1.835,0,0,0,.371-.287,1.854,1.854,0,0,0,.287-.371,1.823,1.823,0,0,0,.251-.927,1.78,1.78,0,0,0-.145-.714,1.854,1.854,0,0,0-.976-.976,1.773,1.773,0,0,0-.714-.145,1.833,1.833,0,0,0-.487.065,1.787,1.787,0,0,0-.438.186,1.918,1.918,0,0,0-.371.286,1.776,1.776,0,0,0-.286.371,1.905,1.905,0,0,0-.186.439,1.774,1.774,0,0,0-.066.487" transform="translate(-9.637 -53.016)" fill="#c6a261"/>
        <path id="Caminho_20" data-name="Caminho 20" d="M30.862,118.858V115.07h1.393a1.867,1.867,0,0,1,.5.067,1.886,1.886,0,0,1,.452.191,1.95,1.95,0,0,1,.383.3,1.93,1.93,0,0,1,.3.383,1.888,1.888,0,0,1,0,1.911,1.93,1.93,0,0,1-.3.383,1.884,1.884,0,0,1-.383.3,1.9,1.9,0,0,1-.452.19,1.867,1.867,0,0,1-.5.067Zm1.393-.33a1.519,1.519,0,0,0,.609-.123,1.593,1.593,0,0,0,.5-.335,1.561,1.561,0,0,0,.336-.5,1.566,1.566,0,0,0,0-1.216,1.573,1.573,0,0,0-.833-.834,1.519,1.519,0,0,0-.609-.123H31.193v3.127Z" transform="translate(-14.368 -53.572)" fill="#c6a261"/>
        <path id="Caminho_21" data-name="Caminho 21" d="M39.211,116.923a1.892,1.892,0,0,1,.152-.755,1.954,1.954,0,0,1,.416-.616,1.98,1.98,0,0,1,.616-.415,1.948,1.948,0,0,1,1.508,0,1.936,1.936,0,0,1,1.031,1.031,1.945,1.945,0,0,1,0,1.509,1.936,1.936,0,0,1-1.031,1.031,1.948,1.948,0,0,1-1.508,0,1.98,1.98,0,0,1-.616-.415,1.954,1.954,0,0,1-.416-.616,1.892,1.892,0,0,1-.152-.755m.33,0a1.549,1.549,0,0,0,.058.427,1.664,1.664,0,0,0,.162.384,1.552,1.552,0,0,0,.251.325,1.687,1.687,0,0,0,.325.251,1.617,1.617,0,0,0,1.237.162,1.611,1.611,0,0,0,.961-.739,1.586,1.586,0,0,0,.219-.811,1.557,1.557,0,0,0-.127-.625,1.629,1.629,0,0,0-.855-.855,1.555,1.555,0,0,0-.625-.127,1.579,1.579,0,0,0-.81.219,1.687,1.687,0,0,0-.325.251,1.552,1.552,0,0,0-.251.325,1.664,1.664,0,0,0-.162.384,1.549,1.549,0,0,0-.058.427" transform="translate(-18.255 -53.532)" fill="#c6a261"/>
        <path id="Caminho_22" data-name="Caminho 22" d="M52.081,118.857h-.328l-2.287-3.272a.138.138,0,0,1-.021-.037l-.016-.042a.246.246,0,0,1-.015-.048v3.4h-.331v-3.788h.23a.439.439,0,0,1,.168.027.252.252,0,0,1,.1.084l2.093,3a.4.4,0,0,1,.032.059c.009.02.017.04.024.057s.013.04.019.06v-3.286h.328Z" transform="translate(-22.851 -53.571)" fill="#c6a261"/>
        <path id="Caminho_23" data-name="Caminho 23" d="M57,115.4v-.333h2.826v.333H58.58v3.457h-.331V115.4Z" transform="translate(-26.538 -53.569)" fill="#c6a261"/>
        <path id="Caminho_24" data-name="Caminho 24" d="M63.635,116.923a1.892,1.892,0,0,1,.152-.755,1.954,1.954,0,0,1,.416-.616,1.98,1.98,0,0,1,.616-.415,1.948,1.948,0,0,1,1.508,0,1.936,1.936,0,0,1,1.031,1.031,1.945,1.945,0,0,1,0,1.509,1.936,1.936,0,0,1-1.031,1.031,1.948,1.948,0,0,1-1.508,0,1.98,1.98,0,0,1-.616-.415,1.954,1.954,0,0,1-.416-.616,1.892,1.892,0,0,1-.152-.755m.33,0a1.549,1.549,0,0,0,.058.427,1.664,1.664,0,0,0,.162.384,1.552,1.552,0,0,0,.251.325,1.687,1.687,0,0,0,.325.251,1.617,1.617,0,0,0,1.237.162,1.611,1.611,0,0,0,.961-.739,1.586,1.586,0,0,0,.219-.811,1.557,1.557,0,0,0-.127-.625,1.629,1.629,0,0,0-.855-.855,1.555,1.555,0,0,0-.625-.127,1.579,1.579,0,0,0-.81.219,1.687,1.687,0,0,0-.325.251,1.552,1.552,0,0,0-.251.325,1.664,1.664,0,0,0-.162.384,1.549,1.549,0,0,0-.058.427" transform="translate(-29.626 -53.532)" fill="#c6a261"/>
        <path id="Caminho_25" data-name="Caminho 25" d="M73.5,118.857v-3.788h.33v3.458h1.734v.33Z" transform="translate(-34.217 -53.571)" fill="#c6a261"/>
        <path id="Caminho_26" data-name="Caminho 26" d="M78.472,116.923a1.892,1.892,0,0,1,.152-.755,1.954,1.954,0,0,1,.416-.616,1.98,1.98,0,0,1,.616-.415,1.948,1.948,0,0,1,1.508,0,1.936,1.936,0,0,1,1.031,1.031,1.946,1.946,0,0,1,0,1.509,1.936,1.936,0,0,1-1.031,1.031,1.948,1.948,0,0,1-1.508,0,1.98,1.98,0,0,1-.616-.415,1.954,1.954,0,0,1-.416-.616,1.892,1.892,0,0,1-.152-.755m.33,0a1.549,1.549,0,0,0,.058.427,1.664,1.664,0,0,0,.162.384,1.552,1.552,0,0,0,.251.325,1.688,1.688,0,0,0,.325.251,1.617,1.617,0,0,0,1.237.162,1.611,1.611,0,0,0,.961-.739,1.586,1.586,0,0,0,.219-.811,1.557,1.557,0,0,0-.127-.625,1.629,1.629,0,0,0-.855-.855,1.555,1.555,0,0,0-.625-.127,1.579,1.579,0,0,0-.81.219,1.688,1.688,0,0,0-.325.251,1.553,1.553,0,0,0-.251.325,1.664,1.664,0,0,0-.162.384,1.549,1.549,0,0,0-.058.427" transform="translate(-36.533 -53.532)" fill="#c6a261"/>
        <path id="Caminho_27" data-name="Caminho 27" d="M91.233,117v1.459a1.254,1.254,0,0,1-.285.2,1.73,1.73,0,0,1-.333.124,2.267,2.267,0,0,1-.368.064q-.19.017-.386.017a1.886,1.886,0,0,1-.754-.152,1.986,1.986,0,0,1-.616-.415,1.946,1.946,0,0,1-.416-.616,1.952,1.952,0,0,1,0-1.509,1.942,1.942,0,0,1,.416-.616,1.974,1.974,0,0,1,.616-.415,1.951,1.951,0,0,1,1.492-.008,1.945,1.945,0,0,1,.607.4l-.027.024a.357.357,0,0,1-.107.075.309.309,0,0,1-.128.026.292.292,0,0,1-.169-.053,1.638,1.638,0,0,0-.425-.211,1.562,1.562,0,0,0-.489-.075,1.586,1.586,0,0,0-.81.22,1.686,1.686,0,0,0-.325.251,1.549,1.549,0,0,0-.251.325,1.658,1.658,0,0,0-.162.385,1.546,1.546,0,0,0-.058.427,1.523,1.523,0,0,0,.059.426,1.61,1.61,0,0,0,.426.71,1.675,1.675,0,0,0,.331.251,1.637,1.637,0,0,0,.819.22,1.955,1.955,0,0,0,.532-.073,1.87,1.87,0,0,0,.486-.218v-.91h-.336a.306.306,0,0,1-.294-.2.333.333,0,0,1-.022-.121V117Z" transform="translate(-40.934 -53.532)" fill="#c6a261"/>
        <rect id="Retângulo_1" data-name="Retângulo 1" width="0.33" height="3.788" transform="translate(51.912 61.498)" fill="#c6a261"/>
        <path id="Caminho_28" data-name="Caminho 28" d="M101.562,115.069h.28q.208.482.416.955l.414.942q.206.469.411.941t.414.95h-.148a.309.309,0,0,1-.176-.052.323.323,0,0,1-.118-.138l-.309-.706h-2.091l-.3.706a.3.3,0,0,1-.118.138.322.322,0,0,1-.178.052h-.148Zm-.759,2.562h1.8l-.848-1.945a.408.408,0,0,1-.024-.067.592.592,0,0,1-.016-.073.508.508,0,0,1-.011-.08c0,.027-.008.053-.013.08s-.009.047-.014.073a.413.413,0,0,1-.022.067Z" transform="translate(-46.512 -53.571)" fill="#c6a261"/>
        <rect id="Retângulo_2" data-name="Retângulo 2" width="0.377" height="4.325" transform="translate(60.416 60.961)" fill="#c6a261"/>
        <path id="Caminho_29" data-name="Caminho 29" d="M119.949,118.857h-.328l-2.286-3.272a.125.125,0,0,1-.021-.037l-.016-.042a.246.246,0,0,1-.016-.048v3.4h-.331v-3.788h.23a.439.439,0,0,1,.168.027.252.252,0,0,1,.1.084l2.093,3a.454.454,0,0,1,.032.059l.024.057c.007.019.013.04.019.06v-3.286h.328Z" transform="translate(-54.447 -53.571)" fill="#c6a261"/>
        <path id="Caminho_30" data-name="Caminho 30" d="M124.87,115.4v-.333H127.7v.333h-1.247v3.457h-.331V115.4Z" transform="translate(-58.134 -53.569)" fill="#c6a261"/>
        <path id="Caminho_31" data-name="Caminho 31" d="M134.709,118.857h-2.257v-3.788h2.257v.331h-1.927v1.379h1.56v.331h-1.56v1.417h1.927Z" transform="translate(-61.664 -53.571)" fill="#c6a261"/>
        <path id="Caminho_32" data-name="Caminho 32" d="M142.25,117v1.459a1.254,1.254,0,0,1-.285.2,1.73,1.73,0,0,1-.333.124,2.267,2.267,0,0,1-.368.064q-.19.017-.386.017a1.886,1.886,0,0,1-.754-.152,1.985,1.985,0,0,1-.616-.415,1.946,1.946,0,0,1-.416-.616,1.952,1.952,0,0,1,0-1.509,1.942,1.942,0,0,1,.416-.616,1.974,1.974,0,0,1,.616-.415,1.951,1.951,0,0,1,1.492-.008,1.945,1.945,0,0,1,.607.4l-.027.024a.357.357,0,0,1-.107.075.309.309,0,0,1-.128.026.292.292,0,0,1-.169-.053,1.638,1.638,0,0,0-.425-.211,1.562,1.562,0,0,0-.489-.075,1.586,1.586,0,0,0-.81.22,1.686,1.686,0,0,0-.325.251,1.55,1.55,0,0,0-.251.325,1.658,1.658,0,0,0-.162.385,1.546,1.546,0,0,0-.058.427,1.522,1.522,0,0,0,.059.426,1.609,1.609,0,0,0,.426.71,1.675,1.675,0,0,0,.331.251,1.637,1.637,0,0,0,.819.22,1.955,1.955,0,0,0,.532-.073,1.87,1.87,0,0,0,.486-.218v-.91h-.336a.307.307,0,0,1-.231-.1.314.314,0,0,1-.064-.1.332.332,0,0,1-.022-.121V117Z" transform="translate(-64.685 -53.532)" fill="#c6a261"/>
        <path id="Caminho_33" data-name="Caminho 33" d="M148.4,118.858h-.33V115.07h1.327a1.034,1.034,0,0,1,.415.083,1.063,1.063,0,0,1,.337.227,1.08,1.08,0,0,1,.227.337,1.025,1.025,0,0,1,.083.412,1.092,1.092,0,0,1-.066.378,1.143,1.143,0,0,1-.182.328.98.98,0,0,1-.28.239.908.908,0,0,1-.357.115l1.253,1.668h-.156a.443.443,0,0,1-.4-.2l-1.1-1.467H148.4Zm0-3.457v1.459h1a.714.714,0,0,0,.284-.057.729.729,0,0,0,.233-.156.763.763,0,0,0,.157-.232.71.71,0,0,0,.058-.284.7.7,0,0,0-.058-.283.764.764,0,0,0-.157-.231.74.74,0,0,0-.233-.157.7.7,0,0,0-.284-.058Z" transform="translate(-68.933 -53.572)" fill="#c6a261"/>
        <path id="Caminho_34" data-name="Caminho 34" d="M156.116,115.069h.28q.208.482.416.955l.414.942q.206.469.411.941t.414.95H157.9a.309.309,0,0,1-.176-.052.323.323,0,0,1-.118-.138l-.309-.706h-2.091l-.3.706a.3.3,0,0,1-.118.138.322.322,0,0,1-.178.052h-.148Zm-.759,2.562h1.8l-.848-1.945a.407.407,0,0,1-.024-.067.591.591,0,0,1-.016-.073.505.505,0,0,1-.011-.08c0,.027-.008.053-.013.08s-.009.047-.014.073a.412.412,0,0,1-.022.067Z" transform="translate(-71.91 -53.571)" fill="#c6a261"/>
        <path id="Caminho_35" data-name="Caminho 35" d="M163.16,118.858V115.07h1.393a1.864,1.864,0,0,1,.5.067,1.886,1.886,0,0,1,.452.191,1.949,1.949,0,0,1,.383.3,1.93,1.93,0,0,1,.3.383,1.888,1.888,0,0,1,0,1.911,1.93,1.93,0,0,1-.3.383,1.883,1.883,0,0,1-.383.3,1.9,1.9,0,0,1-.452.19,1.864,1.864,0,0,1-.5.067Zm1.393-.33a1.519,1.519,0,0,0,.609-.123,1.587,1.587,0,0,0,.5-.335,1.561,1.561,0,0,0,.336-.5,1.566,1.566,0,0,0,0-1.216,1.573,1.573,0,0,0-.833-.834,1.519,1.519,0,0,0-.609-.123h-1.062v3.127Z" transform="translate(-75.96 -53.572)" fill="#c6a261"/>
        <path id="Caminho_36" data-name="Caminho 36" d="M172.141,115.069h.28q.208.482.416.955l.414.942q.206.469.411.941t.414.95h-.148a.309.309,0,0,1-.176-.052.323.323,0,0,1-.118-.138l-.309-.706h-2.091l-.3.706a.3.3,0,0,1-.118.138.323.323,0,0,1-.179.052h-.148Zm-.759,2.562h1.8l-.848-1.945a.406.406,0,0,1-.024-.067.594.594,0,0,1-.016-.073.511.511,0,0,1-.011-.08c0,.027-.008.053-.013.08s-.009.047-.014.073a.414.414,0,0,1-.022.067Z" transform="translate(-79.371 -53.571)" fill="#c6a261"/>
      </g>
    </g>
  </g>
</svg>
